<?xml version="1.0" standalone="no"?>
<!DOCTYPE svg PUBLIC "-//W3C//DTD SVG 20010904//EN"
 "http://www.w3.org/TR/2001/REC-SVG-20010904/DTD/svg10.dtd">
<svg version="1.0" xmlns="http://www.w3.org/2000/svg"
 width="384.000000pt" height="384.000000pt" viewBox="0 0 384.000000 384.000000"
 preserveAspectRatio="xMidYMid meet">
<metadata>
Created by potrace 1.14, written by Peter Selinger 2001-2017
</metadata>
<g transform="translate(0.000000,384.000000) scale(0.100000,-0.100000)"
fill="#000000" stroke="none">
<path d="M1075 3473 c-17 -3 -121 -24 -135 -28 -72 -21 -180 -89 -248 -154
-85 -83 -162 -232 -180 -350 -7 -40 -8 -728 -2 -806 10 -122 76 -266 166 -361
129 -135 266 -192 484 -200 124 -5 126 -4 191 27 65 31 66 32 145 161 43 71
84 135 89 141 14 18 34 49 42 67 4 8 11 20 15 25 5 6 34 51 65 100 74 120 69
117 122 94 24 -11 42 -22 39 -25 -3 -3 -22 3 -42 12 -19 10 -37 16 -39 13 -5
-7 -174 -282 -193 -316 -11 -18 -56 -93 -101 -167 l-82 -136 82 0 c105 0 145
24 201 123 15 26 31 45 36 42 5 -3 0 -20 -11 -38 -10 -18 -27 -49 -36 -69 -9
-21 -20 -38 -25 -38 -4 0 -8 -5 -8 -10 0 -7 27 -10 73 -8 l72 3 29 58 c28 56
51 72 62 42 4 -8 2 -21 -4 -28 -5 -6 -13 -27 -17 -44 l-7 -33 49 0 c57 0 68 6
77 43 8 33 26 36 26 5 0 -13 4 -28 8 -34 9 -14 109 -18 117 -5 3 6 15 7 28 2
12 -5 51 -9 86 -10 36 -1 71 -7 78 -13 7 -6 13 -7 13 -4 0 19 43 -20 62 -57
18 -33 23 -59 23 -117 0 -89 -16 -126 -82 -186 -81 -75 -104 -78 -651 -79
l-472 0 -83 -86 c-45 -47 -101 -108 -124 -136 -24 -27 -53 -61 -65 -75 -13
-13 -38 -42 -56 -64 -88 -104 -118 -139 -132 -154 -8 -9 -40 -45 -70 -80 -30
-35 -62 -72 -70 -80 -28 -30 -105 -123 -108 -130 -3 -9 2343 -5 2393 4 58 11
162 54 222 92 145 92 258 268 280 435 10 74 9 859 -1 900 -20 86 -76 198 -119
241 -35 35 -127 102 -172 126 -152 81 -222 95 -510 98 -132 1 -245 3 -250 3
-6 1 -28 30 -48 65 -21 35 -44 70 -52 76 -21 17 -274 140 -289 140 -18 0 -61
-96 -58 -131 l2 -30 -37 19 c-67 34 -132 62 -144 62 -6 0 -28 -13 -48 -28 -20
-16 -63 -46 -96 -69 -33 -22 -81 -55 -106 -73 -26 -18 -61 -33 -78 -35 -26 -2
-34 2 -47 27 -33 63 -22 135 33 233 44 78 125 142 224 176 63 21 73 22 645 23
l581 1 70 63 c39 34 82 72 97 83 14 11 26 26 26 32 0 7 -34 95 -75 197 -42
102 -96 237 -122 300 -25 63 -50 119 -55 125 -8 9 -1642 16 -1703 8z m979
-1326 c-16 -33 -32 -53 -40 -50 -9 3 -5 21 14 68 22 53 29 62 40 51 11 -11 9
-23 -14 -69z m-119 -8 c5 -5 -5 -4 -23 2 -17 6 -32 13 -32 16 0 7 43 -8 55
-18z"/>
</g>
</svg>
